<svg width="535" height="520" viewBox="0 0 535 520" fill="none" xmlns="http://www.w3.org/2000/svg">
<rect x="3" y="3" width="529" height="514" stroke="url(#paint0_linear_95_279)" stroke-width="6"/>
<path d="M47.2836 367.132C43.4105 370.426 37.7331 366.877 37.586 362.103C37.0271 357.78 39.9786 353.388 43.2046 351.31C47.5582 348.281 53.5591 347.594 58.3736 350.29C69.3067 356.564 67.4142 371.318 65.2766 381.67C62.992 392.816 58.9521 403.433 55.6967 414.256C50.9705 431.048 48.6858 450.017 56.5694 465.996C60.7465 473.829 67.7672 481.368 76.3568 483.172C85.2405 485.289 95.497 481.956 102.312 475.515C119.128 460.83 138.366 434.019 162.36 433.244C172.401 432.793 182.609 435.979 190.424 442.381C202.818 452.36 207.75 468.781 207.358 484.122C207.358 484.387 207.132 484.603 206.867 484.603C206.622 484.603 206.426 484.417 206.397 484.181C204.21 466.585 195.336 448.184 177.794 442.606C168.234 439.45 157.556 440.116 148.888 445.596C136.827 453.184 127.296 464.732 117.324 475.192C108.372 484.858 100.635 492.612 86.9369 494.641C70.9834 497.141 57.1675 488.946 48.6368 475.594C36.3898 456.487 38.2724 431.803 44.3812 410.893C47.568 399.208 59.7954 371.426 55.579 360.887C55.128 360.015 54.4612 359.143 53.6474 358.554C51.2941 356.809 46.9601 358.152 45.6167 360.554C45.2735 361.074 45.4402 361.789 45.1657 362.28C44.9794 363.662 46.2443 364.77 47.2836 366.142C47.568 366.416 47.5876 366.858 47.2836 367.112V367.132Z" fill="url(#paint1_linear_95_279)"/>
<path d="M245.827 495.399C228.716 494.696 212.927 487.355 198.129 479.214C180.625 469.598 159.593 457.298 141.698 448.21C122.44 438.438 94.4793 430.502 75.0255 443.719C68.1946 448.473 60.7953 457.796 64.3921 466.855C66.6462 472.449 72.9576 476.578 79.2397 474.108C82.856 472.585 84.5711 468.398 83.0618 464.747C81.9544 461.994 79.5337 460.695 77.3188 460.412C77.6912 459.407 78.3282 458.353 79.0241 457.406C83.1991 451.88 90.2456 449.088 97.1156 448.249C111.218 446.736 125.262 450.426 138.248 455.961C146.324 459.182 164.817 468.28 173.039 472.029C192.434 480.951 211.555 492.129 232.91 495.516C237.183 496.2 241.505 496.385 245.798 496.385C246.053 496.385 246.258 496.19 246.278 495.936C246.298 495.672 246.092 495.438 245.827 495.419V495.399ZM77.064 461.34C77.064 461.34 77.064 461.32 77.064 461.301C77.113 461.369 77.1032 461.379 77.064 461.34Z" fill="url(#paint2_linear_95_279)"/>
<path d="M177.694 429.558C186.022 419.866 202.227 419.943 209.656 431.069C215.892 441.091 218.775 452.071 223.614 462.277C226.516 468.639 229.967 474.816 234.805 479.774C243.651 488.014 254.754 493.65 266.581 495.635C266.845 495.654 267.06 495.906 267.021 496.186C266.992 496.38 266.855 496.535 266.679 496.583C264.128 497.31 261.528 497.6 258.899 497.678C245.42 497.833 231.306 492.836 221.698 482.659C214.24 474.729 209.069 464.243 204.71 454.385C202.1 448.779 200.155 443.657 197.096 439.086C192.619 433.257 184.907 432.395 177.997 430.439C177.606 430.381 177.411 429.839 177.684 429.539L177.694 429.558Z" fill="url(#paint3_linear_95_279)"/>
<path d="M480.973 108.788C482.53 103.011 485.689 97.6179 490.049 93.2327L480.973 108.788Z" fill="url(#paint4_linear_95_279)"/>
<path d="M484.173 367.131C488.046 370.425 493.723 366.876 493.87 362.102C494.429 357.779 491.478 353.387 488.252 351.309C483.898 348.28 477.897 347.593 473.083 350.289C462.15 356.563 464.042 371.317 466.18 381.669C468.464 392.815 472.504 403.432 475.76 414.255C480.486 431.047 482.77 450.016 474.887 465.995C470.71 473.828 463.689 481.367 455.1 483.171C446.216 485.288 435.959 481.955 429.144 475.514C412.328 460.829 393.09 434.018 369.096 433.243C359.055 432.792 348.848 435.978 341.033 442.38C328.639 452.359 323.706 468.78 324.099 484.121C324.099 484.386 324.324 484.602 324.589 484.602C324.834 484.602 325.03 484.416 325.06 484.18C327.246 466.584 336.12 448.183 353.662 442.605C363.222 439.449 373.901 440.115 382.569 445.595C394.629 453.183 404.16 464.731 414.132 475.191C423.085 484.857 430.821 492.611 444.519 494.64C460.473 497.14 474.289 488.945 482.819 475.593C495.066 456.486 493.184 431.802 487.075 410.892C483.888 399.207 471.661 371.425 475.877 360.886C476.328 360.014 476.995 359.142 477.809 358.553C480.162 356.808 484.496 358.151 485.84 360.553C486.183 361.073 486.016 361.788 486.291 362.279C486.477 363.661 485.212 364.769 484.173 366.141C483.888 366.415 483.869 366.857 484.173 367.111V367.131Z" fill="url(#paint5_linear_95_279)"/>
<path d="M285.179 495.935C285.199 496.189 285.403 496.384 285.656 496.384C289.918 496.384 294.21 496.199 298.452 495.515C319.657 492.128 338.642 480.95 357.9 472.028C366.055 468.279 384.427 459.181 392.446 455.96C405.339 450.425 419.284 446.735 433.287 448.248C440.099 449.087 447.105 451.87 451.251 457.405C451.942 458.342 452.584 459.406 452.944 460.411C450.745 460.704 448.351 462.003 447.242 464.746C445.743 468.397 447.446 472.594 451.037 474.107C457.284 476.587 463.541 472.458 465.779 466.854C469.341 457.795 462.004 448.482 455.221 443.718C435.905 430.501 408.142 438.437 389.02 448.209C371.261 457.297 350.378 469.607 332.988 479.213C318.284 487.354 302.617 494.695 285.627 495.398C285.364 495.418 285.169 495.642 285.179 495.915V495.935ZM453.187 461.319C453.187 461.319 453.187 461.339 453.187 461.358C453.139 461.407 453.129 461.397 453.187 461.319Z" fill="url(#paint6_linear_95_279)"/>
<path d="M353.764 429.558C345.437 419.865 329.231 419.942 321.802 431.068C315.566 441.09 312.683 452.07 307.845 462.276C304.942 468.638 301.492 474.816 296.653 479.773C287.808 488.013 276.704 493.649 264.877 495.634C264.613 495.653 264.398 495.905 264.437 496.186C264.467 496.379 264.603 496.534 264.779 496.583C267.33 497.309 269.93 497.599 272.56 497.677C286.038 497.832 300.152 492.835 309.761 482.659C317.218 474.728 322.389 464.242 326.748 454.385C329.358 448.778 331.303 443.656 334.362 439.086C338.839 433.256 346.551 432.395 353.461 430.439C353.852 430.381 354.048 429.838 353.774 429.538L353.764 429.558Z" fill="url(#paint7_linear_95_279)"/>
<path d="M369.561 436.151C397.359 437.624 425.853 436.966 452.433 427.667C461.178 424.397 469.727 420.489 477.845 415.707C504.925 399.662 522.034 376.979 513.985 343.937C511.963 335.679 508.665 327.774 504.199 320.577C502.786 318.406 501.107 314.734 497.966 316.816C496.592 317.827 496.357 319.811 497.426 321.146C498.663 322.815 499.92 324.809 500.989 326.665C504.327 332.497 506.908 338.801 508.587 345.312C514.898 369.988 506.152 388.753 486.757 404.061C468.687 417.976 447.113 427.127 424.616 430.574C415.586 432.027 406.448 432.852 397.28 433.235C388.122 433.608 378.896 433.628 369.787 433.117C368.953 433.048 368.217 433.696 368.168 434.551C368.119 435.385 368.747 436.092 369.561 436.151Z" fill="url(#paint8_linear_95_279)"/>
<path d="M478.917 278.263C476.816 276.857 474.551 275.637 472.101 275.057C469.651 274.476 466.999 274.594 464.752 275.755C462.612 276.867 460.996 278.824 458.914 280.054C455.68 281.952 451.643 281.903 448.341 283.683C446.23 284.824 444.478 286.762 443.742 289.103C443.006 291.444 443.364 294.169 444.855 296.097C446.085 297.681 447.934 298.625 449.793 299.294C455.041 301.202 460.695 301.399 466.224 301.979C471.753 302.56 477.465 303.642 481.987 306.966C483.817 308.314 485.395 309.996 487.225 311.353C489.055 312.711 491.224 313.763 493.47 313.586C505.166 312.642 490.033 288.67 486.45 284.756C484.194 282.296 481.667 280.103 478.908 278.254L478.917 278.263Z" fill="url(#paint9_linear_95_279)"/>
<path d="M484.929 283.694C484.731 281.269 483.938 278.941 483.655 276.535C483.372 274.12 483.731 271.419 485.42 269.769C487.344 267.884 490.373 267.962 492.873 268.797C495.373 269.642 497.675 271.115 500.232 271.714C502.261 272.185 504.383 272.097 506.402 272.617C509.176 273.334 511.658 275.259 513.129 277.841C514.601 280.424 515.064 283.625 514.375 286.552C512.743 293.465 505.582 297.373 502.864 303.894C501.959 306.064 501.468 308.627 499.676 310.051C497.874 311.475 495.241 311.21 493.335 309.963C491.43 308.706 490.137 306.644 489.118 304.532C488.269 302.765 487.665 300.663 486.476 299.112C485.467 297.796 484.788 297.246 484.533 295.409C483.995 291.511 485.25 287.612 484.939 283.704L484.929 283.694Z" fill="url(#paint10_linear_95_279)"/>
<path d="M499.259 314.426C498.144 312.179 496.49 310.209 495.455 307.924C493.672 304.003 493.821 299.337 491.441 295.722C489.907 293.389 487.457 291.745 484.808 290.741C482.159 289.736 479.311 289.344 476.482 289.115C472.419 288.79 468.027 288.876 464.71 291.161C463.227 292.184 462.011 293.686 461.643 295.416C461.215 297.482 462.002 299.614 463.117 301.422C467.38 308.383 475.696 311.72 482.468 316.434C485.147 318.299 487.667 320.45 490.704 321.693C493.015 322.64 497.068 323.357 499.249 321.636C501.311 320.02 500.225 316.348 499.269 314.417L499.259 314.426Z" fill="url(#paint11_linear_95_279)"/>
<path d="M495.301 303.667C496.578 301.591 498.407 299.911 499.848 297.939C502.122 294.845 503.457 291.051 506.253 288.4C508.507 286.258 511.642 285.041 514.777 285.088C516.76 285.117 518.859 285.72 520.088 287.258C521.975 289.608 521.123 293.108 519.614 295.713C515.85 302.242 508.798 306.545 505.46 313.31C504.405 315.452 503.418 318.094 501.077 318.688C499.133 319.179 497.091 317.848 496.124 316.112C495.098 314.272 494.953 311.97 494.276 310.036C493.521 307.875 494.121 305.582 495.301 303.667Z" fill="url(#paint12_linear_95_279)"/>
<path d="M164.503 436.158C136.949 437.615 108.705 436.964 82.3582 427.765C73.6894 424.531 65.2152 420.665 57.1691 415.934C30.326 400.062 13.3678 377.622 21.3458 344.935C23.3501 336.766 26.6191 328.946 31.0459 321.826C32.4469 319.679 34.1106 316.046 37.224 318.106C38.5861 319.106 38.8196 321.068 37.7592 322.389C36.5333 324.041 35.2879 326.013 34.2274 327.849C30.9194 333.619 28.3606 339.855 26.6969 346.295C20.441 370.706 29.1098 389.269 48.3349 404.413C66.2465 418.178 87.6314 427.231 109.931 430.641C118.882 432.078 127.94 432.894 137.027 433.273C146.104 433.642 155.25 433.662 164.279 433.157C165.106 433.089 165.835 433.73 165.884 434.575C165.933 435.4 165.31 436.1 164.503 436.158Z" fill="url(#paint13_linear_95_279)"/>
<path d="M55.5859 278.263C57.737 276.857 60.0566 275.637 62.5645 275.057C65.0725 274.476 67.7885 274.594 70.0883 275.755C72.279 276.867 73.9345 278.824 76.0657 280.054C79.3766 281.952 83.5102 281.903 86.8904 283.683C89.0514 284.824 90.8456 286.762 91.599 289.103C92.3524 291.444 91.9856 294.169 90.4591 296.097C89.2001 297.681 87.3068 298.625 85.4035 299.294C80.0308 301.202 74.2418 301.399 68.5816 301.979C62.9214 302.56 57.0728 303.642 52.4436 306.966C50.57 308.314 48.9543 309.996 47.0808 311.353C45.2073 312.711 42.9868 313.763 40.687 313.586C28.7124 312.642 44.2061 288.67 47.8738 284.756C50.1835 282.296 52.7707 280.103 55.5958 278.254L55.5859 278.263Z" fill="url(#paint14_linear_95_279)"/>
<path d="M50.3635 283.694C50.5699 281.269 51.3954 278.941 51.6903 276.535C51.9851 274.12 51.6117 271.419 49.8525 269.769C47.8476 267.884 44.6929 267.962 42.0885 268.797C39.4842 269.642 37.0862 271.115 34.4228 271.714C32.3098 272.185 30.0986 272.097 27.9955 272.617C25.1061 273.334 22.5214 275.259 20.9882 277.841C19.4551 280.424 18.9735 283.625 19.6909 286.552C21.3912 293.465 28.8505 297.373 31.6809 303.894C32.6244 306.064 33.1354 308.627 35.0027 310.051C36.8798 311.475 39.6217 311.21 41.6069 309.963C43.5922 308.706 44.9386 306.644 46 304.532C46.8845 302.765 47.5135 300.663 48.7518 299.112C49.8034 297.796 50.511 297.246 50.7763 295.409C51.3365 291.511 50.0294 287.612 50.3537 283.704L50.3635 283.694Z" fill="url(#paint15_linear_95_279)"/>
<path d="M34.7927 314.426C35.9081 312.179 37.5613 310.209 38.5971 307.924C40.3798 304.003 40.2304 299.337 42.6107 295.722C44.1444 293.389 46.5944 291.745 49.2435 290.741C51.8927 289.736 54.741 289.344 57.5694 289.115C61.6328 288.79 66.0249 288.876 69.3413 291.161C70.8252 292.184 72.0403 293.686 72.4088 295.416C72.837 297.482 72.0502 299.614 70.9348 301.422C66.6722 308.383 58.3562 311.72 51.584 316.434C48.9049 318.299 46.3852 320.45 43.3476 321.693C41.0371 322.64 36.9837 323.357 34.8026 321.636C32.7411 320.02 33.8266 316.348 34.7827 314.417L34.7927 314.426Z" fill="url(#paint16_linear_95_279)"/>
<path d="M38.7504 303.667C37.4733 301.591 35.6448 299.911 34.2033 297.939C31.9297 294.845 30.5946 291.051 27.7986 288.4C25.5444 286.258 22.4098 285.041 19.2752 285.088C17.2919 285.117 15.1925 285.72 13.9638 287.258C12.0772 289.608 12.9286 293.108 14.4378 295.713C18.2013 302.242 25.2542 306.545 28.5919 313.31C29.6465 315.452 30.6333 318.094 32.9746 318.688C34.9192 319.179 36.9606 317.848 37.928 316.112C38.9535 314.272 39.0987 311.97 39.7759 310.036C40.5305 307.875 39.9307 305.582 38.7504 303.667Z" fill="url(#paint17_linear_95_279)"/>
<path d="M47.2836 152.34C43.4105 149.046 37.7331 152.594 37.586 157.369C37.0271 161.692 39.9786 166.084 43.2046 168.162C47.5582 171.191 53.5591 171.877 58.3736 169.181C69.3067 162.907 67.4142 148.154 65.2766 137.802C62.992 126.655 58.9521 116.039 55.6967 105.216C50.9705 88.4233 48.6858 69.4543 56.5694 53.4752C60.7465 45.6425 67.7672 38.1039 76.3568 36.3001C85.2405 34.1827 95.497 37.5157 102.312 43.9564C119.128 58.6414 138.366 85.453 162.36 86.2274C172.401 86.6784 182.609 83.4924 190.424 77.0909C202.818 67.1114 207.75 50.6911 207.358 35.3492C207.358 35.0846 207.132 34.8689 206.867 34.8689C206.622 34.8689 206.426 35.0552 206.397 35.2904C204.21 52.887 195.336 71.2875 177.794 76.8654C168.234 80.022 157.556 79.3554 148.888 73.8755C136.827 66.2879 127.296 54.7398 117.324 44.2799C108.372 34.614 100.635 26.8598 86.9369 24.8305C70.9834 22.3307 57.1675 30.5261 48.6368 43.878C36.3898 62.9842 38.2724 87.6685 44.3812 108.579C47.568 120.264 59.7954 148.046 55.579 158.584C55.128 159.457 54.4612 160.329 53.6474 160.917C51.2941 162.662 46.9601 161.319 45.6167 158.918C45.2735 158.398 45.4402 157.682 45.1657 157.192C44.9794 155.81 46.2443 154.702 47.2836 153.33C47.568 153.055 47.5876 152.614 47.2836 152.359V152.34Z" fill="url(#paint18_linear_95_279)"/>
<path d="M245.827 24.0729C228.716 24.7757 212.927 32.1167 198.129 40.2582C180.625 49.8737 159.593 62.1737 141.698 71.262C122.44 81.0337 94.4793 88.9702 75.0255 75.7525C68.1946 70.9985 60.7953 61.6758 64.3921 52.6168C66.6462 47.0232 72.9576 42.8939 79.2397 45.3636C82.856 46.8865 84.5711 51.0744 83.0618 54.7253C81.9544 57.4782 79.5337 58.7765 77.3188 59.0596C77.6912 60.0651 78.3282 61.1194 79.0241 62.0663C83.1991 67.5916 90.2456 70.3835 97.1156 71.223C111.218 72.7361 125.262 69.0461 138.248 63.5111C146.324 60.2896 164.817 51.1915 173.039 47.4429C192.434 38.5205 211.555 27.3431 232.91 23.9557C237.183 23.2724 241.505 23.0869 245.798 23.0869C246.053 23.0869 246.258 23.2822 246.278 23.536C246.298 23.7995 246.092 24.0338 245.827 24.0533V24.0729ZM77.064 58.1323C77.064 58.1323 77.064 58.1518 77.064 58.1713C77.113 58.103 77.1032 58.0932 77.064 58.1323Z" fill="url(#paint19_linear_95_279)"/>
<path d="M177.694 89.9134C186.022 99.606 202.227 99.5285 209.656 88.4028C215.892 78.381 218.775 67.4006 223.614 57.1948C226.516 50.8331 229.967 44.6554 234.805 39.6978C243.651 31.4576 254.754 25.8221 266.581 23.8371C266.845 23.8178 267.06 23.566 267.021 23.2852C266.992 23.0915 266.855 22.9366 266.679 22.8882C264.128 22.162 261.528 21.8715 258.899 21.794C245.42 21.6391 231.306 26.6355 221.698 36.8122C214.24 44.7425 209.069 55.2292 204.71 65.0864C202.1 70.6928 200.155 75.815 197.096 80.3854C192.619 86.2145 184.907 87.0763 177.997 89.0322C177.606 89.0903 177.411 89.6326 177.684 89.9328L177.694 89.9134Z" fill="url(#paint20_linear_95_279)"/>
<path d="M480.973 410.683C482.53 416.461 485.689 421.854 490.049 426.239L480.973 410.683Z" fill="url(#paint21_linear_95_279)"/>
<path d="M484.173 152.34C488.046 149.046 493.723 152.595 493.87 157.369C494.429 161.693 491.478 166.084 488.252 168.163C483.898 171.192 477.897 171.878 473.083 169.182C462.15 162.908 464.042 148.154 466.18 137.802C468.464 126.656 472.504 116.039 475.76 105.217C480.486 88.4241 482.77 69.455 474.887 53.476C470.71 45.6433 463.689 38.1046 455.1 36.3009C446.216 34.1834 435.959 37.5165 429.144 43.9571C412.328 58.6422 393.09 85.4537 369.096 86.2282C359.055 86.6791 348.848 83.4931 341.033 77.0917C328.639 67.1121 323.706 50.6918 324.099 35.35C324.099 35.0853 324.324 34.8696 324.589 34.8696C324.834 34.8696 325.03 35.0559 325.06 35.2912C327.246 52.8878 336.12 71.2882 353.662 76.8662C363.222 80.0228 373.901 79.3562 382.569 73.8762C394.629 66.2886 404.16 54.7406 414.132 44.2806C423.085 34.6148 430.821 26.8605 444.519 24.8313C460.473 22.3315 474.289 30.5269 482.819 43.8787C495.066 62.985 493.184 87.6692 487.075 108.579C483.888 120.265 471.661 148.047 475.877 158.585C476.328 159.457 476.995 160.33 477.809 160.918C480.162 162.663 484.496 161.32 485.84 158.918C486.183 158.399 486.016 157.683 486.291 157.193C486.477 155.811 485.212 154.703 484.173 153.33C483.888 153.056 483.869 152.615 484.173 152.36V152.34Z" fill="url(#paint22_linear_95_279)"/>
<path d="M285.179 23.5367C285.199 23.2829 285.403 23.0877 285.656 23.0877C289.918 23.0877 294.21 23.2731 298.452 23.9565C319.657 27.3438 338.642 38.5213 357.9 47.4437C366.055 51.1923 384.427 60.2904 392.446 63.5118C405.339 69.0468 419.284 72.7368 433.287 71.2237C440.099 70.3842 447.105 67.602 451.251 62.067C451.942 61.1299 452.584 60.0659 452.944 59.0604C450.745 58.7675 448.351 57.4692 447.242 54.7261C445.743 51.0751 447.446 46.8775 451.037 45.3644C457.284 42.8849 463.541 47.0141 465.779 52.6175C469.341 61.6766 462.004 70.9895 455.221 75.7533C435.905 88.9709 408.142 81.0345 389.02 71.2628C371.261 62.1744 350.378 49.8646 332.988 40.2589C318.284 32.1174 302.617 24.7765 285.627 24.0736C285.364 24.0541 285.169 23.8296 285.179 23.5562V23.5367ZM453.187 58.1525C453.187 58.1525 453.187 58.133 453.187 58.1135C453.139 58.0647 453.129 58.0744 453.187 58.1525Z" fill="url(#paint23_linear_95_279)"/>
<path d="M353.764 89.9141C345.437 99.6067 329.231 99.5292 321.802 88.4036C315.566 78.3817 312.683 67.4013 307.845 57.1955C304.942 50.8338 301.492 44.6561 296.653 39.6985C287.808 31.4583 276.704 25.8229 264.877 23.8379C264.613 23.8185 264.398 23.5667 264.437 23.2859C264.467 23.0923 264.603 22.9373 264.779 22.8889C267.33 22.1627 269.93 21.8722 272.56 21.7948C286.038 21.6398 300.152 26.6362 309.761 36.813C317.218 44.7433 322.389 55.2299 326.748 65.0871C329.358 70.6935 331.303 75.8158 334.362 80.3861C338.839 86.2152 346.551 87.077 353.461 89.0329C353.852 89.091 354.048 89.6333 353.774 89.9335L353.764 89.9141Z" fill="url(#paint24_linear_95_279)"/>
<path d="M369.561 83.3208C397.359 81.8479 425.853 82.5058 452.433 91.8048C461.178 95.0747 469.727 98.9828 477.845 103.765C504.925 119.81 522.034 142.493 513.985 175.535C511.963 183.793 508.665 191.698 504.199 198.896C502.786 201.066 501.107 204.738 497.966 202.656C496.592 201.645 496.357 199.662 497.426 198.326C498.663 196.657 499.92 194.663 500.989 192.808C504.327 186.975 506.908 180.671 508.587 174.16C514.898 149.484 506.152 130.719 486.757 115.411C468.687 101.497 447.113 92.3449 424.616 88.8983C415.586 87.445 406.448 86.6202 397.28 86.2372C388.122 85.8641 378.896 85.8444 369.787 86.355C368.953 86.4238 368.217 85.7757 368.168 84.9214C368.119 84.0867 368.747 83.3798 369.561 83.3208Z" fill="url(#paint25_linear_95_279)"/>
<path d="M164.503 83.3143C136.949 81.8572 108.705 82.508 82.3582 91.707C73.6894 94.9417 65.2152 98.8078 57.1691 103.538C30.326 119.411 13.3678 141.85 21.3458 174.537C23.3501 182.706 26.6191 190.526 31.0459 197.646C32.4469 199.793 34.1106 203.426 37.224 201.367C38.5861 200.366 38.8196 198.404 37.7592 197.083C36.5333 195.432 35.2879 193.46 34.2274 191.624C30.9194 185.854 28.3606 179.617 26.6969 173.177C20.441 148.766 29.1098 130.203 48.3349 115.059C66.2465 101.295 87.6314 92.2413 109.931 88.8317C118.882 87.3941 127.94 86.5781 137.027 86.1993C146.104 85.8301 155.25 85.8107 164.279 86.3158C165.106 86.3838 165.835 85.7427 165.884 84.8976C165.933 84.0719 165.31 83.3725 164.503 83.3143Z" fill="url(#paint26_linear_95_279)"/>
<defs>
<linearGradient id="paint0_linear_95_279" x1="0" y1="260" x2="535" y2="260" gradientUnits="userSpaceOnUse">
<stop stop-color="white"/>
<stop offset="0.389423" stop-color="white" stop-opacity="0.6"/>
<stop offset="0.629808" stop-color="white" stop-opacity="0.2"/>
<stop offset="0.918269" stop-color="white" stop-opacity="0.7"/>
</linearGradient>
<linearGradient id="paint1_linear_95_279" x1="66.065" y1="325.018" x2="128.252" y2="511.818" gradientUnits="userSpaceOnUse">
<stop stop-color="white"/>
<stop offset="0.35851" stop-color="white"/>
<stop offset="1" stop-color="white" stop-opacity="0"/>
</linearGradient>
<linearGradient id="paint2_linear_95_279" x1="94.1778" y1="427.153" x2="104.647" y2="510.304" gradientUnits="userSpaceOnUse">
<stop stop-color="white"/>
<stop offset="0.35851" stop-color="white"/>
<stop offset="1" stop-color="white" stop-opacity="0"/>
</linearGradient>
<linearGradient id="paint3_linear_95_279" x1="192.593" y1="410.388" x2="223.854" y2="506.752" gradientUnits="userSpaceOnUse">
<stop stop-color="white"/>
<stop offset="0.35851" stop-color="white"/>
<stop offset="1" stop-color="white" stop-opacity="0"/>
</linearGradient>
<linearGradient id="paint4_linear_95_279" x1="482.498" y1="90.7277" x2="492.638" y2="106.055" gradientUnits="userSpaceOnUse">
<stop stop-color="white"/>
<stop offset="0.35851" stop-color="white"/>
<stop offset="1" stop-color="white" stop-opacity="0"/>
</linearGradient>
<linearGradient id="paint5_linear_95_279" x1="433.18" y1="333.063" x2="350.025" y2="491.435" gradientUnits="userSpaceOnUse">
<stop stop-color="white"/>
<stop offset="0.35851" stop-color="white"/>
<stop offset="1" stop-color="white" stop-opacity="0"/>
</linearGradient>
<linearGradient id="paint6_linear_95_279" x1="416.691" y1="418.48" x2="295.922" y2="412.65" gradientUnits="userSpaceOnUse">
<stop stop-color="white"/>
<stop offset="0.35851" stop-color="white"/>
<stop offset="1" stop-color="white" stop-opacity="0"/>
</linearGradient>
<linearGradient id="paint7_linear_95_279" x1="279.469" y1="410.387" x2="310.73" y2="506.751" gradientUnits="userSpaceOnUse">
<stop stop-color="white"/>
<stop offset="0.35851" stop-color="white"/>
<stop offset="1" stop-color="white" stop-opacity="0"/>
</linearGradient>
<linearGradient id="paint8_linear_95_279" x1="378.765" y1="435.027" x2="500.382" y2="323.552" gradientUnits="userSpaceOnUse">
<stop stop-color="white" stop-opacity="0"/>
<stop offset="0.245745" stop-color="white"/>
<stop offset="0.35851" stop-color="white"/>
<stop offset="0.790168" stop-color="white"/>
<stop offset="1" stop-color="white" stop-opacity="0"/>
</linearGradient>
<linearGradient id="paint9_linear_95_279" x1="452.525" y1="268.454" x2="466.638" y2="319.653" gradientUnits="userSpaceOnUse">
<stop stop-color="white"/>
<stop offset="0.35851" stop-color="white"/>
<stop offset="1" stop-color="white" stop-opacity="0"/>
</linearGradient>
<linearGradient id="paint10_linear_95_279" x1="488.798" y1="261.346" x2="513.889" y2="308.629" gradientUnits="userSpaceOnUse">
<stop stop-color="white"/>
<stop offset="0.35851" stop-color="white"/>
<stop offset="1" stop-color="white" stop-opacity="0"/>
</linearGradient>
<linearGradient id="paint11_linear_95_279" x1="468.062" y1="283.549" x2="482.424" y2="326.489" gradientUnits="userSpaceOnUse">
<stop stop-color="white"/>
<stop offset="0.35851" stop-color="white"/>
<stop offset="1" stop-color="white" stop-opacity="0"/>
</linearGradient>
<linearGradient id="paint12_linear_95_279" x1="498.518" y1="279.66" x2="517.09" y2="318.529" gradientUnits="userSpaceOnUse">
<stop stop-color="white"/>
<stop offset="0.35851" stop-color="white"/>
<stop offset="1" stop-color="white" stop-opacity="0"/>
</linearGradient>
<linearGradient id="paint13_linear_95_279" x1="155.38" y1="435.046" x2="35.0495" y2="324.53" gradientUnits="userSpaceOnUse">
<stop stop-color="white" stop-opacity="0"/>
<stop offset="0.245745" stop-color="white"/>
<stop offset="0.35851" stop-color="white"/>
<stop offset="0.790168" stop-color="white"/>
<stop offset="1" stop-color="white" stop-opacity="0"/>
</linearGradient>
<linearGradient id="paint14_linear_95_279" x1="82.607" y1="268.454" x2="68.7766" y2="319.819" gradientUnits="userSpaceOnUse">
<stop stop-color="white"/>
<stop offset="0.35851" stop-color="white"/>
<stop offset="1" stop-color="white" stop-opacity="0"/>
</linearGradient>
<linearGradient id="paint15_linear_95_279" x1="46.3333" y1="261.346" x2="21.8235" y2="309.458" gradientUnits="userSpaceOnUse">
<stop stop-color="white"/>
<stop offset="0.35851" stop-color="white"/>
<stop offset="1" stop-color="white" stop-opacity="0"/>
</linearGradient>
<linearGradient id="paint16_linear_95_279" x1="65.9898" y1="283.549" x2="51.6274" y2="326.489" gradientUnits="userSpaceOnUse">
<stop stop-color="white"/>
<stop offset="0.35851" stop-color="white"/>
<stop offset="1" stop-color="white" stop-opacity="0"/>
</linearGradient>
<linearGradient id="paint17_linear_95_279" x1="35.534" y1="279.66" x2="16.9614" y2="318.529" gradientUnits="userSpaceOnUse">
<stop stop-color="white"/>
<stop offset="0.35851" stop-color="white"/>
<stop offset="1" stop-color="white" stop-opacity="0"/>
</linearGradient>
<linearGradient id="paint18_linear_95_279" x1="66.065" y1="194.454" x2="128.252" y2="7.65408" gradientUnits="userSpaceOnUse">
<stop stop-color="white"/>
<stop offset="0.35851" stop-color="white"/>
<stop offset="1" stop-color="white" stop-opacity="0"/>
</linearGradient>
<linearGradient id="paint19_linear_95_279" x1="94.1778" y1="92.3193" x2="104.647" y2="9.16762" gradientUnits="userSpaceOnUse">
<stop stop-color="white"/>
<stop offset="0.35851" stop-color="white"/>
<stop offset="1" stop-color="white" stop-opacity="0"/>
</linearGradient>
<linearGradient id="paint20_linear_95_279" x1="192.593" y1="109.083" x2="223.854" y2="12.7195" gradientUnits="userSpaceOnUse">
<stop stop-color="white"/>
<stop offset="0.35851" stop-color="white"/>
<stop offset="1" stop-color="white" stop-opacity="0"/>
</linearGradient>
<linearGradient id="paint21_linear_95_279" x1="482.498" y1="428.744" x2="492.638" y2="413.417" gradientUnits="userSpaceOnUse">
<stop stop-color="white"/>
<stop offset="0.35851" stop-color="white"/>
<stop offset="1" stop-color="white" stop-opacity="0"/>
</linearGradient>
<linearGradient id="paint22_linear_95_279" x1="433.18" y1="186.408" x2="350.025" y2="28.0367" gradientUnits="userSpaceOnUse">
<stop stop-color="white"/>
<stop offset="0.35851" stop-color="white"/>
<stop offset="1" stop-color="white" stop-opacity="0"/>
</linearGradient>
<linearGradient id="paint23_linear_95_279" x1="416.691" y1="100.991" x2="295.922" y2="106.822" gradientUnits="userSpaceOnUse">
<stop stop-color="white"/>
<stop offset="0.35851" stop-color="white"/>
<stop offset="1" stop-color="white" stop-opacity="0"/>
</linearGradient>
<linearGradient id="paint24_linear_95_279" x1="279.469" y1="109.084" x2="310.73" y2="12.7202" gradientUnits="userSpaceOnUse">
<stop stop-color="white"/>
<stop offset="0.35851" stop-color="white"/>
<stop offset="1" stop-color="white" stop-opacity="0"/>
</linearGradient>
<linearGradient id="paint25_linear_95_279" x1="378.765" y1="84.4449" x2="500.382" y2="195.92" gradientUnits="userSpaceOnUse">
<stop stop-color="white" stop-opacity="0"/>
<stop offset="0.245745" stop-color="white"/>
<stop offset="0.35851" stop-color="white"/>
<stop offset="0.790168" stop-color="white"/>
<stop offset="1" stop-color="white" stop-opacity="0"/>
</linearGradient>
<linearGradient id="paint26_linear_95_279" x1="155.38" y1="84.4262" x2="35.0495" y2="194.942" gradientUnits="userSpaceOnUse">
<stop stop-color="white" stop-opacity="0"/>
<stop offset="0.245745" stop-color="white"/>
<stop offset="0.35851" stop-color="white"/>
<stop offset="0.790168" stop-color="white"/>
<stop offset="1" stop-color="white" stop-opacity="0"/>
</linearGradient>
</defs>
</svg>
