<svg width="35" height="35" viewBox="0 0 35 35" fill="none" xmlns="http://www.w3.org/2000/svg">
<path d="M9.84375 6.5625C9.84375 4.375 11.4844 2.1875 14.2188 2.1875H20.7812C23.5156 2.1875 25.1562 4.375 25.1562 6.5625V12.0312H31.7188C32.2989 12.0312 32.8553 12.2617 33.2655 12.672C33.6758 13.0822 33.9062 13.6386 33.9062 14.2188V17.5C33.9064 18.0613 33.6907 18.6012 33.3039 19.008C32.9171 19.4147 32.3887 19.6572 31.8281 19.6853L28.5414 30.7738C28.2735 31.6783 27.7203 32.4721 26.9644 33.0366C26.2085 33.6011 25.2903 33.9062 24.3469 33.9062H10.6269C9.69123 33.9062 8.78025 33.6062 8.02767 33.0503C7.27508 32.4943 6.72055 31.7118 6.44547 30.8175L3.01547 19.6722C2.48514 19.6073 1.99691 19.3505 1.64288 18.9503C1.28886 18.5502 1.09353 18.0343 1.09375 17.5V14.2188C1.09375 13.6386 1.32422 13.0822 1.73445 12.672C2.14469 12.2617 2.70109 12.0312 3.28125 12.0312H9.84375V6.5625ZM12.0312 12.0312H22.9688V6.5625C22.9688 3.82812 21.3281 3.28125 19.6875 3.28125H15.3125C13.6719 3.28125 12.0312 3.82812 12.0312 6.5625V12.0312ZM22.9688 14.2188H3.28125V17.5H31.7188V14.2188H25.1562V15.3125C25.1562 15.6026 25.041 15.8808 24.8359 16.0859C24.6308 16.291 24.3526 16.4062 24.0625 16.4062C23.7724 16.4062 23.4942 16.291 23.2891 16.0859C23.084 15.8808 22.9688 15.6026 22.9688 15.3125V14.2188ZM27.6872 19.6875L28.6825 20.6828L29.4897 19.8756L29.5444 19.6875H27.6872ZM24.0417 20.6828L25.037 19.6875H23.0464L24.0417 20.6828ZM18.4078 19.6875L19.4031 20.6828L20.3984 19.6875H18.4078ZM14.7623 20.6828L15.7577 19.6875H13.767L14.7623 20.6828ZM10.1216 20.6828L11.1169 19.6875H9.12625L10.1216 20.6828ZM5.30906 19.6875L5.5825 20.58L6.475 19.6875H5.30906ZM6.36234 23.112L6.67516 24.1281L7.02734 23.7759L6.36234 23.112ZM28.7667 22.3136L28.6825 22.2294L27.1359 23.7759L28.0602 24.7002L28.7667 22.3136ZM27.5352 26.4698L27.7058 25.8934L26.3616 24.5492L24.815 26.0969L26.3616 27.6434L27.5352 26.4698ZM26.6459 29.4733L26.3616 29.19L24.815 30.7366L25.48 31.4016C25.935 31.127 26.285 30.6884 26.4447 30.1525L26.6459 29.4733ZM24.2506 31.7188L24.0428 31.5109L23.8339 31.7188H24.2495H24.2506ZM22.2862 31.7188L23.2684 30.7366L21.7219 29.19L20.1753 30.7366L21.1564 31.7188H22.2862ZM19.1931 31.7188H19.6098L19.402 31.5109L19.1931 31.7188ZM17.6466 31.7188L18.6277 30.7366L17.0811 29.19L15.5345 30.7366L16.5167 31.7188H17.6466ZM14.5523 31.7188H14.9691L14.7613 31.5109L14.5523 31.7188ZM13.0058 31.7188L13.988 30.7366L12.4403 29.19L10.8938 30.7366L11.8759 31.7188H13.0058ZM10.3053 31.6947L10.1205 31.5098L10.0023 31.628C10.1008 31.6575 10.2025 31.6794 10.3053 31.6947ZM9.04312 31.0406L9.34719 30.7366L8.42516 29.8145L8.53562 30.1755C8.63844 30.5069 8.81453 30.8011 9.04312 31.0406ZM7.73719 27.5811L7.80062 27.6434L9.34719 26.0969L7.80062 24.5492L7.03937 25.3105L7.73719 27.5811ZM7.80062 19.9095L6.25406 21.4561L7.80062 23.0027L9.34719 21.4561L7.80062 19.9095ZM10.1205 22.2294L8.575 23.7759L10.1216 25.3236L11.6681 23.7759L10.1205 22.2294ZM12.4403 24.5492L10.8938 26.0969L12.4403 27.6434L13.988 26.0969L12.4403 24.5492ZM13.2147 23.7759L14.7613 25.3236L16.3078 23.7759L14.7613 22.2294L13.2147 23.7759ZM14.7613 26.8702L13.2147 28.4167L14.7613 29.9633L16.3078 28.4167L14.7613 26.8702ZM17.0811 27.6434L18.6277 26.0969L17.0811 24.5492L15.5345 26.0969L17.0811 27.6434ZM12.4403 23.0027L13.988 21.4561L12.4403 19.9095L10.8938 21.4561L12.4403 23.0027ZM22.4952 28.4167L24.0417 29.9633L25.5883 28.4167L24.0417 26.8702L22.4952 28.4167ZM25.5883 23.7759L24.0417 22.2294L22.4952 23.7759L24.0417 25.3236L25.5883 23.7759ZM19.4009 29.9633L20.9486 28.4167L19.4009 26.8702L17.8544 28.4167L19.4009 29.9633ZM20.1753 21.4561L21.7219 23.0027L23.2684 21.4561L21.7219 19.9095L20.1753 21.4561ZM18.6277 21.4561L17.0811 19.9095L15.5345 21.4561L17.0811 23.0027L18.6277 21.4561ZM26.3627 23.0027L27.9092 21.4561L26.3616 19.9095L24.815 21.4561L26.3627 23.0027ZM17.8544 23.7759L19.4009 25.3236L20.9486 23.7759L19.4009 22.2294L17.8544 23.7759ZM10.1216 29.9633L11.667 28.4167L10.1205 26.8702L8.575 28.4156L10.1216 29.9622V29.9633ZM20.1753 26.0969L21.7219 27.6434L23.2684 26.0969L21.7219 24.5492L20.1753 26.0969Z" fill="white"/>
</svg>
