<svg width="649" height="89" viewBox="0 0 649 89" fill="none" xmlns="http://www.w3.org/2000/svg">
<path d="M643.533 81.4467C646.285 82.2743 649.403 84.5572 646.681 86.2644C646.215 86.5798 645.545 86.7227 644.87 86.7689C643.715 86.8887 642.568 87.0325 641.412 87.1457C637.791 87.5 634.119 87.727 630.455 87.537C626.41 87.3033 622.395 86.8566 618.442 86.2851C614.879 85.7631 611.456 84.966 608.011 84.216C602.601 83.1242 596.924 82.2586 591.182 82.4733C589.042 82.584 586.837 82.808 585.004 83.5298C582.182 84.5845 584.488 85.6234 586.808 85.6746C588.282 85.7193 589.634 85.2823 591.066 85.1534C591.938 85.07 592.837 85.0528 593.718 85.0809C594.95 85.0883 596.181 85.3236 597.078 85.8539C597.778 86.2305 598.9 86.9656 598.016 87.5049C597.225 87.7766 596.285 87.3975 595.433 87.4602C593.799 87.5205 592.18 87.7296 590.541 87.7222C588.543 87.6544 586.53 87.3587 584.702 86.8656C579.235 85.4236 581.008 82.5395 585.439 81.1362C592.855 78.784 601.944 80.3194 609.399 81.7408C618.596 83.5677 627.375 87.1158 637.402 86.6253C639.447 86.5418 641.458 86.3113 643.388 85.9364C643.72 85.8654 644.083 85.7869 644.254 85.5879C644.373 85.369 644.251 85.1412 644.057 84.952C643.333 84.3681 642.313 83.955 641.253 83.6271C640.549 83.4319 639.86 83.2544 639.178 83.0895C639.199 83.2828 639.221 83.4762 639.247 83.6694C639.377 84.3244 639.556 85.2692 638.127 85.3981C636.697 85.4939 636.397 84.5787 636.369 83.9023C636.289 83.4156 636.254 82.929 636.252 82.4426C634.808 82.1506 633.358 81.8908 631.837 81.6219C625.915 80.6911 620.065 80.2863 614.018 80.0013C605.979 79.7156 597.925 79.7743 589.878 79.7512C564.815 79.5439 111.55 79.8113 86.4921 80.1937C80.3981 80.2549 74.3041 80.1443 68.2115 80.2897C64.5989 80.3731 60.9972 80.5325 57.3846 80.6109C59.3466 80.9082 61.1263 81.5111 62.6708 82.2957C65.0923 83.3843 69.151 85.8266 64.4997 86.9333C63.431 87.1835 62.2549 87.0531 61.1373 87.0572C58.9034 87.2241 56.7837 86.6491 54.6191 86.4104C53.8672 86.3254 53.1031 86.2783 52.3607 86.1652C51.0201 85.9669 49.6849 85.5318 48.3103 85.901C47.791 86.0174 47.3123 86.1899 46.7848 86.2932C46.0792 86.4262 45.4808 85.8844 45.9459 85.5342C46.5522 85.0436 47.5325 84.781 48.419 84.52C52.2505 83.3902 54.2029 83.5108 58.1159 84.4152C58.8732 84.5812 59.6143 84.7702 60.3281 84.9957C60.993 85.2047 61.5615 85.5335 62.3229 85.607C62.962 85.6631 63.726 85.8101 64.2685 85.521C63.4133 84.9181 62.191 84.5465 61.1005 84.1211C59.439 83.4563 57.6389 82.9342 55.6565 82.7509C53.8359 82.5271 52.0249 82.5891 50.3104 82.6708C46.5673 82.874 42.8471 83.3248 39.3011 84.088C36.537 84.6604 33.8652 85.393 31.0534 85.877C28.258 86.309 25.5046 86.8276 22.7609 87.3686C19.8363 87.9475 16.815 88.3819 13.73 88.4472C9.86181 88.5099 5.27295 88.7776 2.22058 87.0564C0.633907 86.1488 -0.110966 84.6151 1.11535 83.4381L1.11401 83.4398C2.596 81.9647 5.41595 81.3848 7.9721 80.8562C8.38702 80.7633 8.80407 80.6783 9.22259 80.5999C9.25195 79.985 9.28051 79.37 9.32592 78.7552C9.89154 72.8029 8.35095 66.8569 9.20617 60.9046C9.55426 57.4795 10.0671 53.9859 12.6314 50.8631C12.8593 50.4773 13.8672 49.6006 15.028 48.8286C15.2584 48.4697 15.5261 48.1169 15.8388 47.7717C16.7361 46.8137 18.2195 45.835 20.1556 45.7994C21.5397 45.7738 22.8055 46.3536 23.1291 47.1721C24.1027 48.8338 21.4446 52.2234 24.1762 53.2971C25.4053 52.8899 26.1192 52.1821 26.7079 51.4264C28.0621 49.825 28.8166 48.0385 29.06 46.219C29.1428 45.675 29.0422 45.0739 29.0666 44.5011C29.0422 43.9283 29.1428 43.3272 29.06 42.7832C28.8166 40.9637 28.0621 39.1773 26.7079 37.5758C26.1192 36.8201 25.4053 36.1123 24.1762 35.7051C21.4446 36.7788 24.1027 40.1684 23.1291 41.8302C22.8055 42.6486 21.5397 43.2284 20.1556 43.2028C18.2195 43.1673 16.7361 42.1885 15.8388 41.2305C15.526 40.8852 15.2584 40.5324 15.028 40.1734C13.8674 39.4015 12.8593 38.5249 12.6314 38.1391C10.0671 35.0164 9.55426 31.5227 9.20618 28.0977C8.35095 22.1453 9.89154 16.1994 9.32593 10.247C9.28052 9.63175 9.25195 9.01614 9.22259 8.40067C8.80365 8.32218 8.38611 8.23725 7.97076 8.14422C5.41467 7.61564 2.59473 7.03588 1.11267 5.56086C-0.115112 4.38392 0.629883 2.84921 2.21796 1.94236L2.21924 1.94317C5.27161 0.222011 9.86047 0.490477 13.7286 0.552425C16.8137 0.616846 19.835 1.05209 22.7595 1.63105C25.5033 2.17201 28.2567 2.69146 31.0521 3.12258C33.8638 3.60657 36.537 4.33925 39.2998 4.91161C42.8458 5.67476 46.566 6.1258 50.3091 6.32898C52.0236 6.41074 53.8347 6.4717 55.6552 6.24871C57.6375 6.06618 59.4391 5.54417 61.0992 4.87849C62.1896 4.45234 63.4133 4.08067 64.2672 3.4786C63.7233 3.18956 62.9606 3.33668 62.3216 3.39285C61.5602 3.46635 60.9916 3.79493 60.3268 4.00389C59.613 4.22936 58.8719 4.41844 58.1146 4.58445C54.2015 5.48881 52.2478 5.61026 48.4177 4.48041C47.5312 4.21942 46.5509 3.95679 45.9445 3.4662C45.4796 3.11602 46.0779 2.57508 46.7835 2.70723C47.311 2.81047 47.791 2.98318 48.309 3.09962C49.6835 3.46794 51.0188 3.03346 52.3594 2.83525C53.1003 2.72293 53.866 2.67504 54.6178 2.58998C56.7823 2.35046 58.9021 1.77551 61.136 1.94317C62.2549 1.94729 63.4297 1.81771 64.4984 2.06713C69.1483 3.17386 65.0911 5.61615 62.6695 6.70471C61.1263 7.4893 59.3452 8.09216 57.3833 8.38949C60.9958 8.46796 64.5977 8.62735 68.2103 8.71076C74.3029 8.85612 80.3969 8.74556 86.4908 8.80668C111.549 9.18908 564.813 9.45659 589.877 9.24928C597.923 9.22616 605.978 9.2849 614.016 8.99914C620.065 8.7142 625.913 8.30936 631.836 7.37857C633.357 7.10965 634.808 6.84957 636.252 6.55741C636.254 6.0718 636.289 5.5859 636.369 5.10001C636.397 4.42359 636.697 3.5084 638.127 3.60421C639.556 3.73308 639.377 4.67795 639.247 5.33289C639.221 5.52537 639.199 5.71795 639.178 5.9106C639.859 5.74579 640.548 5.56845 641.252 5.37332C642.312 5.04545 643.332 4.63168 644.055 4.04862C644.25 3.85949 644.374 3.63145 644.253 3.41258C644.083 3.21356 643.72 3.13428 643.386 3.06409C641.456 2.68912 639.446 2.45863 637.401 2.37521C627.375 1.88545 618.596 5.43276 609.398 7.25969C601.943 8.68109 592.853 10.2164 585.438 7.86423C581.008 6.46181 579.234 3.57768 584.701 2.13481C586.528 1.64174 588.542 1.34622 590.539 1.27849C592.178 1.27107 593.797 1.48076 595.431 1.54023C596.284 1.60294 597.223 1.22401 598.015 1.49572C598.9 2.03418 597.777 2.76995 597.077 3.14658C596.178 3.67682 594.949 3.91153 593.717 3.91979C592.836 3.94786 591.937 3.93127 591.064 3.84704C589.631 3.71737 588.281 3.28122 586.807 3.32581C584.486 3.37702 582.18 4.41535 585.003 5.47086C586.835 6.19353 589.041 6.41645 591.181 6.52713C596.923 6.74269 602.599 5.87628 608.009 4.78443C611.453 4.0345 614.877 3.23839 618.441 2.71558C622.393 2.14406 626.408 1.69715 630.453 1.46341C634.118 1.27346 637.79 1.49985 641.411 1.85499C642.566 1.96897 643.714 2.11262 644.868 2.23155C645.544 2.2778 646.213 2.42062 646.68 2.73611C649.402 4.44325 646.284 6.72613 643.532 7.55373C642.094 8.00114 640.575 8.36003 638.997 8.64881C638.972 9.1816 638.945 9.71445 638.906 10.247C638.341 16.1994 639.881 22.1453 639.026 28.0977C638.678 31.5227 638.165 35.0164 635.601 38.1392C635.373 38.5252 634.364 39.4026 633.202 40.1749C632.972 40.5333 632.704 40.8857 632.392 41.2305C631.495 42.1886 630.011 43.1673 628.075 43.2029C626.691 43.2284 625.425 42.6486 625.101 41.8302C624.128 40.1685 626.786 36.7789 624.055 35.7051C622.825 36.1123 622.112 36.8202 621.523 37.5759C620.169 39.1773 619.414 40.9637 619.17 42.7832C619.088 43.3273 619.189 43.9284 619.164 44.5011C619.189 45.0739 619.088 45.6751 619.17 46.2191C619.414 48.0385 620.169 49.825 621.523 51.4264C622.112 52.1821 622.825 52.89 624.055 53.2971C626.786 52.2234 624.128 48.8338 625.101 47.1721C625.425 46.3536 626.691 45.7739 628.075 45.7994C630.011 45.8349 631.495 46.8137 632.392 47.7718C632.704 48.1164 632.972 48.4686 633.202 48.8268C634.364 49.5992 635.373 50.4771 635.601 50.8631C638.165 53.9859 638.678 57.4795 639.026 60.9046C639.881 66.857 638.341 72.8029 638.906 78.7553C638.945 79.2871 638.972 79.8192 638.997 80.3512C640.575 80.6401 642.094 80.9992 643.533 81.4467ZM42.6839 8.22611C37.1597 7.46709 32.1929 5.77548 27.3322 4.06749C24.0106 3.13256 20.5543 2.32228 16.9648 1.86555C13.393 1.48232 6.32812 1.64264 4.68976 3.98824C5.3725 4.90966 7.40668 5.24623 9.01782 5.59276C9.00732 5.50611 8.9964 5.41947 8.98474 5.33286C8.85559 4.67791 8.67603 3.73302 10.105 3.60418C11.5354 3.50839 11.8344 4.42356 11.863 5.09998C11.9217 5.45875 11.9565 5.81751 11.9717 6.17616C15.7215 6.77517 19.6371 6.94486 23.4653 7.30173C29.819 7.95915 36.2514 8.12535 42.6839 8.22611ZM42.6839 80.7761C36.2514 80.8769 29.8189 81.0429 23.4653 81.7003C19.6371 82.0579 15.7215 82.227 11.9717 82.8259C11.9565 83.1846 11.9217 83.5434 11.863 83.9023C11.8344 84.5787 11.5354 85.4939 10.105 85.3981C8.67602 85.2692 8.85559 84.3243 8.98474 83.6694C8.9964 83.5828 9.00732 83.4961 9.01782 83.4095C7.40631 83.7555 5.37323 84.0923 4.69006 85.0142C6.32885 87.3595 13.3932 87.5197 16.9648 87.1365C20.5543 86.6798 24.0119 85.8695 27.3321 84.9345C32.1929 83.2257 37.1597 81.5352 42.6839 80.7761ZM637.793 71.1368C637.939 69.2786 638.044 67.4169 637.881 65.557C637.632 62.217 637.168 58.8216 635.669 55.6072C635.367 54.9524 635.032 54.3039 634.659 53.6641C634.777 54.7848 634.838 55.9081 635.017 57.0006C635.902 62.7506 636.68 68.8657 632.002 74.1285C630.186 76.0817 627.301 77.9946 623.484 78.3332C618.211 78.5909 615.377 75.4862 615.509 72.6302L615.508 72.631C615.466 70.7066 618.201 68.6905 621.566 69.0952C624.026 69.4041 625.281 70.9635 627.062 71.7877C628.325 71.2154 628.258 70.05 627.508 69.2976C627.274 68.9615 628.003 68.6724 628.424 68.9292C630.037 70.14 630.084 72.0761 628.544 73.3199C627.164 74.3092 624.555 73.7335 623.935 72.5963C623.179 71.6192 623.336 69.5074 620.598 70.1499C618.801 70.9741 619.856 73.3594 620.317 74.5058C621.19 76.2097 624.709 76.768 627.136 75.9264C628.957 75.3788 630.267 74.3489 631.191 73.2736C634.393 69.5355 634.798 65.1771 634.361 61.0525C633.734 57.4524 633.599 53.6779 631.029 50.3462C630.472 49.7449 628.694 47.6165 627.392 48.2655C625.286 49.6952 627.817 52.9775 626.022 54.7474C624.611 56.1878 621.372 55.722 620.314 54.3402C619.931 53.9421 619.78 53.4574 619.644 53.0163C619.428 52.3862 619.233 51.7543 619.091 51.1167C618.81 49.7887 618.432 48.4613 618.343 47.1233C618.305 46.4256 618.356 45.7282 618.382 45.0307C618.254 44.9325 618.265 44.7864 618.392 44.6907C618.393 44.6275 618.394 44.5643 618.394 44.5011C618.394 44.4379 618.393 44.3746 618.392 44.3114C618.265 44.2157 618.253 44.0694 618.382 43.9712C618.356 43.2737 618.305 42.5764 618.343 41.8788C618.432 40.5408 618.81 39.2136 619.091 37.8856C619.233 37.248 619.428 36.6161 619.644 35.986C619.78 35.545 619.931 35.0602 620.314 34.6621C621.372 33.2803 624.611 32.8145 626.022 34.2549C627.817 36.0248 625.286 39.3069 627.392 40.7365C628.694 41.3857 630.472 39.2574 631.029 38.6561C633.599 35.3244 633.734 31.5499 634.361 27.9498C634.798 23.8252 634.393 19.4668 631.191 15.7287C630.267 14.6534 628.957 13.6235 627.136 13.0759C624.709 12.2343 621.19 12.7926 620.317 14.4965C619.856 15.6429 618.801 18.0279 620.598 18.8522C623.336 19.4948 623.179 17.3831 623.935 16.406C624.555 15.2688 627.164 14.693 628.544 15.6824C630.084 16.9262 630.037 18.8623 628.424 20.0731C628.003 20.3299 627.274 20.0408 627.508 19.7047C628.258 18.9523 628.325 17.7869 627.062 17.2146C625.281 18.0388 624.026 19.5982 621.566 19.9071C618.201 20.3118 615.466 18.2956 615.508 16.3713L615.509 16.3721C615.377 13.5161 618.211 10.4114 623.484 10.6691C627.301 11.0077 630.186 12.9206 632.002 14.8738C636.68 20.1366 635.902 26.2517 635.017 32.0017C634.838 33.0942 634.777 34.2173 634.659 35.338C635.032 34.6982 635.367 34.0498 635.669 33.3951C637.168 30.1807 637.632 26.7853 637.881 23.4453C638.044 21.5853 637.939 19.7236 637.793 17.8652C637.646 15.7906 637.522 13.711 637.062 11.652C636.853 10.7866 636.644 9.91696 636.49 9.04486C628.668 10.1001 619.759 9.7507 612.147 9.94567C596.111 10.186 580.077 10.2908 564.034 10.309C542.966 10.4527 93.7118 9.9704 72.6494 10.1653C68.6276 10.2041 64.6138 10.0455 60.5974 9.92736C50.7358 9.65976 40.8553 9.73404 31.0005 9.3533C24.6272 9.10863 18.0545 9.57518 11.7857 8.79692C11.6295 9.75218 11.399 10.7046 11.1695 11.652C10.71 13.7109 10.5864 15.7906 10.4396 17.8652C10.2927 19.7235 10.1881 21.5853 10.3513 23.4453C10.6001 26.7852 11.0635 30.1806 12.5632 33.3951C12.8641 34.0489 13.1998 34.6962 13.5714 35.3351C13.4539 34.2154 13.3918 33.0932 13.2131 32.0017C12.328 26.2517 11.5503 20.1365 16.2289 14.8738C18.044 12.9205 20.9293 11.0077 24.7473 10.6691C30.02 10.4114 32.8536 13.516 32.7217 16.3721L32.723 16.3712C32.7651 18.2956 30.0295 20.3117 26.6644 19.907C24.2048 19.5981 22.9496 18.0388 21.1685 17.2145C19.9055 17.7869 19.9721 18.9523 20.7226 19.7046C20.9564 20.0408 20.2278 20.3298 19.8063 20.0731C18.1938 18.8623 18.1461 16.9262 19.6865 15.6824C21.0666 14.6929 23.6757 15.2687 24.2957 16.406C25.0516 17.3831 24.8942 19.4947 27.6326 18.8522C29.4297 18.0279 28.3748 15.6428 27.9139 14.4965C27.041 12.7926 23.5222 12.2342 21.0952 13.0758C19.2733 13.6234 17.964 14.6534 17.0394 15.7287C13.8375 19.4668 13.4323 23.8251 13.8701 27.9497C14.4969 31.5499 14.6313 35.3244 17.201 38.6561C17.7585 39.2574 19.5371 41.3857 20.8383 40.7365C22.9442 39.3068 20.4141 36.0247 22.2089 34.2548C23.6202 32.8144 26.8588 33.2803 27.9166 34.6621C28.2999 35.0601 28.451 35.5449 28.587 35.986C28.8032 36.6161 28.9975 37.2479 29.1403 37.8855C29.4203 39.2136 29.7982 40.5408 29.8879 41.8787C29.9254 42.5765 29.8749 43.2739 29.8488 43.9714C29.9775 44.0696 29.9657 44.2159 29.8387 44.3115C29.8374 44.3747 29.8373 44.4379 29.8367 44.5011C29.8373 44.5643 29.8374 44.6274 29.8387 44.6905C29.9658 44.7861 29.9774 44.9324 29.8488 45.0307C29.8749 45.7282 29.9254 46.4255 29.8879 47.1233C29.7982 48.4613 29.4203 49.7886 29.1403 51.1167C28.9975 51.7543 28.8032 52.3861 28.587 53.0163C28.451 53.4573 28.3 53.9421 27.9166 54.3402C26.8588 55.7219 23.6202 56.1878 22.2089 54.7474C20.4141 52.9775 22.9444 49.6952 20.8383 48.2655C19.5371 47.6164 17.7585 49.7449 17.201 50.3462C14.6313 53.6779 14.4969 57.4523 13.8701 61.0525C13.4323 65.1771 13.8375 69.5354 17.0394 73.2735C17.964 74.3489 19.2733 75.3788 21.0952 75.9264C23.5222 76.768 27.041 76.2096 27.9139 74.5058C28.3748 73.3594 29.43 70.9741 27.6326 70.1498C24.8942 69.5073 25.0516 71.6192 24.2957 72.5962C23.6757 73.7335 21.0666 74.3093 19.6865 73.3199C18.1461 72.076 18.1938 70.14 19.8063 68.9292C20.2278 68.6724 20.9564 68.9615 20.7226 69.2976C19.9721 70.05 19.9055 71.2153 21.1685 71.7877C22.9496 70.9634 24.2048 69.4041 26.6644 69.0952C30.0295 68.6906 32.7652 70.7066 32.723 72.631L32.7217 72.6302C32.8535 75.4862 30.02 78.5908 24.7473 78.3332C20.9294 77.9946 18.044 76.0817 16.2289 74.1284C11.5504 68.8657 12.328 62.7506 13.2131 57.0006C13.3918 55.909 13.4539 54.7867 13.5714 53.667C13.1997 54.3059 12.8641 54.9533 12.5632 55.6072C11.0635 58.8216 10.6001 62.217 10.3513 65.557C10.1881 67.4169 10.2927 69.2785 10.4396 71.1368C10.5864 73.2115 10.71 75.2913 11.1695 77.3503C11.3989 78.2971 11.6292 79.249 11.7854 80.2037C18.0546 79.4254 24.628 79.8918 31.0019 79.6471C40.8566 79.2664 50.7358 79.3398 60.5988 79.0731C64.6152 78.9558 68.6276 78.7971 72.6508 78.8351C93.7131 79.0292 542.968 78.5477 564.036 78.6915C580.078 78.7096 596.113 78.8155 612.148 79.055C619.759 79.25 628.669 78.9003 636.49 79.9554C636.644 79.084 636.853 78.215 637.062 77.3503C637.522 75.2913 637.646 73.2115 637.793 71.1368Z" fill="white" stroke="white"/>
</svg>
