<svg width="661" height="149" viewBox="0 0 661 149" fill="none" xmlns="http://www.w3.org/2000/svg">
<mask id="mask0_95_342" style="mask-type:luminance" maskUnits="userSpaceOnUse" x="0" y="0" width="661" height="149">
<path d="M1.30073e-05 148.787L660.45 148.787L660.45 6.10352e-05L0 0.000118774L1.30073e-05 148.787Z" fill="white"/>
</mask>
<g mask="url(#mask0_95_342)">
<path d="M635.878 120.175C618.484 135.554 599.638 143.6 576.244 146.943C533.791 153.008 495.353 147.345 468.907 112.204C462.057 103.102 460.634 98.5549 449.459 92.2935C426.403 79.3782 373.63 82.7506 346.243 82.3328C282.72 81.3651 214.063 77.8231 151.141 86.7113C115.921 91.6856 54.6431 110.745 22.0667 102.936C16.2933 101.552 8.30543 96.6083 4.33161 91.2341C-2.0216 82.64 -1.99352 65.9532 2.19953 56.4084C8.94526 41.0555 21.9927 37.3131 38.2008 36.6573C65.5397 35.551 95.2272 46.0251 122.079 51.3723C159.49 58.8196 200.095 60.1686 239.178 61.3199C291.855 62.8731 345.575 63.9719 398.218 62.5536C413.893 62.1311 428.219 63.0614 443.413 58.4262C465.279 51.7554 469.754 31.0872 485.902 17.607C530.691 -19.7836 634.686 4.64105 656.644 57.8435C667.07 83.1028 654.736 103.503 635.878 120.176" fill="white"/>
</g>
</svg>
